<svg version="1.1" xmlns="http://www.w3.org/2000/svg" xmlns:xlink="http://www.w3.org/1999/xlink" width="358.31808" height="358.31808" viewBox="0,0,358.31808,358.31808"><g transform="translate(-60.84096,-0.84096)"><g data-paper-data="{&quot;isPaintingLayer&quot;:true}" fill-rule="nonzero" stroke-linejoin="miter" stroke-miterlimit="10" stroke-dasharray="" stroke-dashoffset="0" style="mix-blend-mode: normal"><path d="M61.76912,180c0,-98.4342 79.79668,-178.23088 178.23088,-178.23088c98.4342,0 178.23088,79.79668 178.23088,178.23088c0,98.4342 -79.79668,178.23088 -178.23088,178.23088c-98.4342,0 -178.23088,-79.79668 -178.23088,-178.23088z" fill="#cccccc" stroke="#cccccc" stroke-width="1.85632" stroke-linecap="butt"/><g><g><path d="M116.93747,121.514l21.0664,-36.8144l185.8909,106.3726l-21.0663,36.8144z" fill="#587c1c" stroke="#587c1c" stroke-width="3.91997" stroke-linecap="butt"/><path d="M326.75477,192.4322l43.1448,36.5746l-9.5983,17.504l-56.1688,-16.3646z" fill="#9f9760" stroke="#9f9760" stroke-width="2.24131" stroke-linecap="round"/><path d="M371.14057,230.1764l10.7753,15.1191l-1.5383,3.633l-18.7829,-1.6939z" fill="#494949" stroke="#494949" stroke-width="1.92471" stroke-linecap="round"/><path d="M131.36117,77.9422l16.0613,9.4946l-24.278,41.0688l-16.0613,-9.4946z" fill="#ababab" stroke="none" stroke-width="1.12009" stroke-linecap="butt"/></g><g stroke="none" stroke-width="1.16611" stroke-linecap="butt"><path d="M113.78507,149.8322h43.7292v102.6179h-43.7292z" fill="#f6f6f6"/><path d="M111.45287,149.2652h48.9767v74.0482h-48.9767z" fill="#d57b6e"/></g><g fill="#ededed" stroke="#ededed" stroke-linecap="round"><path d="M223.07317,201.088l11.742,6.3255l-21.9399,41.1956l1.6669,7.4515l-20.2226,-10.5028l6.1942,-3.9991z" stroke-width="3.9768"/><path d="M214.44907,180.5677l43.4323,25.7102l-9.4144,18.1293l-3.4195,-11.4436l-31.8427,-16.5001l-9.2082,2.3141z" stroke-width="2.00578"/></g></g></g></g></svg>