<?xml version="1.0" encoding="UTF-8" standalone="no"?>
<!-- Created with Inkscape (http://www.inkscape.org/) -->

<svg
   width="141mm"
   height="70mm"
   viewBox="0 0 141 70"
   version="1.1"
   id="svg1"
   xml:space="preserve"
   inkscape:version="1.3.2 (091e20e, 2023-11-25, custom)"
   sodipodi:docname="hmi-icon.svg"
   inkscape:export-filename="hmi-256.png"
   inkscape:export-xdpi="36.124447"
   inkscape:export-ydpi="36.124447"
   xmlns:inkscape="http://www.inkscape.org/namespaces/inkscape"
   xmlns:sodipodi="http://sodipodi.sourceforge.net/DTD/sodipodi-0.dtd"
   xmlns="http://www.w3.org/2000/svg"
   xmlns:svg="http://www.w3.org/2000/svg"><sodipodi:namedview
     id="namedview1"
     pagecolor="#585858"
     bordercolor="#000000"
     borderopacity="0.25"
     inkscape:showpageshadow="2"
     inkscape:pageopacity="0.0"
     inkscape:pagecheckerboard="false"
     inkscape:deskcolor="#d1d1d1"
     inkscape:document-units="mm"
     inkscape:zoom="0.70710678"
     inkscape:cx="67.175144"
     inkscape:cy="50.204581"
     inkscape:window-width="1920"
     inkscape:window-height="1017"
     inkscape:window-x="1912"
     inkscape:window-y="-8"
     inkscape:window-maximized="1"
     inkscape:current-layer="layer1" /><defs
     id="defs1"><inkscape:path-effect
       effect="powerclip"
       id="path-effect3"
       is_visible="true"
       lpeversion="1"
       inverse="true"
       flatten="false"
       hide_clip="false"
       message="Use fill-rule evenodd on &lt;b&gt;fill and stroke&lt;/b&gt; dialog if no flatten result after convert clip to paths." /><clipPath
       clipPathUnits="userSpaceOnUse"
       id="clipPath1"><g
         id="g3"
         style="display:none;fill:none"><circle
           style="fill:none;stroke-width:0.154223"
           id="circle1"
           cx="31.1115"
           cy="66.611504"
           r="3.8705001"
           d="m 34.982,66.611504 a 3.8705001,3.8705001 0 0 1 -3.8705,3.8705 3.8705001,3.8705001 0 0 1 -3.8705,-3.8705 3.8705001,3.8705001 0 0 1 3.8705,-3.8705 3.8705001,3.8705001 0 0 1 3.8705,3.8705 z" /><circle
           style="fill:none;stroke-width:0.154223"
           id="circle2"
           cx="31.1115"
           cy="113.3885"
           r="3.8705001"
           d="m 34.982,113.3885 a 3.8705001,3.8705001 0 0 1 -3.8705,3.8705 3.8705001,3.8705001 0 0 1 -3.8705,-3.8705 3.8705001,3.8705001 0 0 1 3.8705,-3.8705 3.8705001,3.8705001 0 0 1 3.8705,3.8705 z" /><circle
           style="fill:none;stroke-width:0.154223"
           id="circle3"
           cx="148.8885"
           cy="66.611504"
           r="3.8705001"
           d="m 152.759,66.611504 a 3.8705001,3.8705001 0 0 1 -3.8705,3.8705 3.8705001,3.8705001 0 0 1 -3.8705,-3.8705 3.8705001,3.8705001 0 0 1 3.8705,-3.8705 3.8705001,3.8705001 0 0 1 3.8705,3.8705 z" /></g><path
         id="lpe_path-effect3"
         style="fill:none"
         class="powerclip"
         d="m 14.5,50 h 151 v 80 h -151 z m 20.482,16.611504 a 3.8705001,3.8705001 0 0 0 -3.8705,-3.8705 3.8705001,3.8705001 0 0 0 -3.8705,3.8705 3.8705001,3.8705001 0 0 0 3.8705,3.8705 3.8705001,3.8705001 0 0 0 3.8705,-3.8705 z m 0,46.776996 a 3.8705001,3.8705001 0 0 0 -3.8705,-3.8705 3.8705001,3.8705001 0 0 0 -3.8705,3.8705 3.8705001,3.8705001 0 0 0 3.8705,3.8705 3.8705001,3.8705001 0 0 0 3.8705,-3.8705 z M 152.759,66.611504 a 3.8705001,3.8705001 0 0 0 -3.8705,-3.8705 3.8705001,3.8705001 0 0 0 -3.8705,3.8705 3.8705001,3.8705001 0 0 0 3.8705,3.8705 3.8705001,3.8705001 0 0 0 3.8705,-3.8705 z" /></clipPath></defs><g
     inkscape:label="Layer 1"
     inkscape:groupmode="layer"
     id="layer1"
     transform="translate(-19.5,-54.999999)"><path
       style="fill:#ffffff;stroke-width:1.10587"
       d="m 23.5,55 h 133 l 4,4 v 62 l -4,4 h -3.74121 l 2.1e-4,-58.259 -4,-4 H 31.241 l -3.999845,4 v 46.518 l 3.999845,4 54.059058,6e-5 V 125 H 23.5 l -4,-4 V 59 Z m 68.67298,68.86203 -1.131595,-1.03633 0.478415,-0.47799 0.478391,-0.47844 0.66915,0.35341 0.669162,0.35355 0.802124,0.50267 0.802132,0.50293 0.514579,-0.32406 0.514568,-0.32443 v -0.5533 -0.55375 l -0.877809,-0.15959 -0.877798,-0.16006 -1.061764,-0.48746 -1.061766,-0.48727 -0.181773,-0.47376 -0.181791,-0.47394 v -0.58351 -0.58418 l 0.855294,-0.85525 0.855297,-0.85475 h 1.281796 1.281809 l 0.935222,0.96474 0.935061,0.96486 v 0.35178 0.35142 h -0.841919 -0.841921 l -0.364248,-0.43844 -0.364296,-0.43891 h -0.824661 -0.824703 l -0.188753,0.30497 -0.188756,0.30579 0.353605,0.4262 0.353613,0.42596 h 0.603299 0.603285 l 1.262798,0.61124 1.262657,0.611 v 1.23582 1.23511 l -0.865821,0.64062 -0.865969,0.63991 h -1.417703 -1.417633 z m 9.35086,0.73528 -0.20648,-0.33413 0.10622,-2.82751 0.10554,-2.82728 -0.73191,-0.0322 -0.73108,-0.0305 -0.3345,-0.042 -0.334689,-0.042 -0.182646,-0.47598 -0.182604,-0.47585 0.333729,-0.40235 0.33314,-0.40127 h 2.87334 2.8725 l 0.19096,0.30903 0.19168,0.30897 -0.18234,0.72672 -0.18232,0.72662 -1.0737,-0.0844 -1.07299,-0.0844 -0.0152,3.07206 -0.0152,3.0721 -0.77703,0.0896 -0.77699,0.0896 z m 7.28681,-0.34654 -0.8445,-0.64863 -0.21454,-0.30241 -0.21501,-0.30263 -0.004,-3.16389 -0.004,-3.16384 0.92766,0.0913 0.92854,0.0913 0.0223,2.91735 0.0223,2.91729 0.83547,0.29521 0.83557,0.29536 0.55424,-0.6849 0.55439,-0.68478 v -2.60124 -2.60048 h 0.87834 0.8775 v 2.79871 2.79876 l -0.32851,0.63916 -0.32853,0.63897 -0.74109,0.65827 -0.74116,0.65835 h -1.08548 -1.08551 z m 7.46684,0.52201 -0.12587,-0.12592 0.0248,-3.89683 0.0248,-3.89732 1.34996,-0.0882 1.34993,-0.0881 1.16445,0.59394 1.16395,0.59356 0.6097,0.85657 0.60981,0.85616 -9.3e-4,1.12544 -9.3e-4,1.12527 -0.57275,0.93903 -0.57286,0.93908 -1.17011,0.59661 -1.17002,0.59726 h -1.2798 -1.27953 z m 3.89812,-2.59847 0.50599,-0.64016 0.007,-0.76191 0.007,-0.76193 -0.73629,-0.7938 -0.73572,-0.79428 -0.64623,0.0925 -0.64589,0.0925 -0.0164,2.04812 -0.0164,2.04816 0.11395,0.24288 0.1144,0.24338 0.77234,-0.18801 0.77268,-0.1876 z m 4.45753,2.36225 -0.15397,-0.40189 0.0814,-3.64087 0.0825,-3.64109 h 0.87777 0.8776 v 3.94955 3.94991 l -0.80627,0.0924 -0.80631,0.0924 z m 6.45035,-0.15751 -0.87675,-0.50425 -0.43991,-0.58546 -0.44053,-0.58486 -0.34101,-0.9786 -0.34107,-0.97917 0.34107,-0.93206 0.34101,-0.9324 0.43845,-0.60589 0.43905,-0.60503 0.93668,-0.48247 0.93645,-0.48234 h 0.72928 0.72916 l 1.01668,0.59985 1.0167,0.59958 0.46345,0.70634 0.46286,0.70643 -0.0109,1.54651 -0.0109,1.54663 -0.64811,0.74728 -0.64778,0.74728 -0.79427,0.49579 -0.79411,0.49638 -0.81521,-0.008 -0.81464,-0.008 z m 3.19055,-2.08516 0.50373,-0.55606 -0.0922,-1.09676 -0.0922,-1.09734 -0.77894,-0.57876 -0.77942,-0.57913 -0.76605,0.19174 -0.7657,0.19267 -0.5752,0.9431 -0.57533,0.94265 v 0.14626 0.14679 l 0.57982,0.9508 0.57984,0.95093 h 1.12928 1.1298 z m 5.00747,1.56814 -1.13198,-1.03633 0.47835,-0.47799 0.47893,-0.47844 0.66864,0.35341 0.66932,0.35355 0.80204,0.50267 0.80218,0.50293 0.51487,-0.32406 0.51428,-0.32443 v -0.5533 -0.55375 l -0.87752,-0.15959 -0.87822,-0.16006 -1.06121,-0.48746 -1.06213,-0.48727 -0.18182,-0.47376 -0.18178,-0.47394 v -0.53885 -0.5389 l 0.75737,-0.89979 0.75748,-0.90015 h 1.37959 1.38015 l 0.93465,0.96474 0.93572,0.96486 v 0.35178 0.35142 h -0.84242 -0.84203 l -0.36426,-0.43844 -0.36425,-0.43891 h -0.8246 -0.82438 l -0.18876,0.30497 -0.18865,0.30579 0.35321,0.4262 0.35404,0.42596 h 0.60318 0.60287 l 1.26285,0.61124 1.2632,0.611 v 1.26658 1.26668 l -0.98586,0.60903 -0.98553,0.60917 h -1.2977 -1.29857 z M 73.577702,68.048932 h 7.741191 L 96.801197,99.95625 112.28349,68.048932 h 7.74157 v 32.843558 h -7.74157 V 85.742435 L 100.11871,109.9768 H 93.483594 L 81.318893,85.742435 v 25.987485 h -7.741191 z"
       id="path3"
       sodipodi:nodetypes="ccccccccccccccccccccccccccccccccccccccccccccccccccccccccccccccccccccccccccccccccccccccccccccccccccccccccccccccccccccccccccccccccccccccccccccccccccccccccccccccccccccccccccccccccccccccccccccccccccccccccccccccccccccccccccccccccccccccccccccccccccccccccccccccccccccccccccccccc"
       clip-path="url(#clipPath1)"
       inkscape:path-effect="#path-effect3"
       inkscape:original-d="m 23.5,55 h 133 l 4,4 v 62 l -4,4 h -3.74121 l 2.1e-4,-58.259 -4,-4 H 31.241 l -3.999845,4 v 46.518 l 3.999845,4 54.059058,6e-5 V 125 H 23.5 l -4,-4 V 59 Z m 68.67298,68.86203 -1.131595,-1.03633 0.478415,-0.47799 0.478391,-0.47844 0.66915,0.35341 0.669162,0.35355 0.802124,0.50267 0.802132,0.50293 0.514579,-0.32406 0.514568,-0.32443 v -0.5533 -0.55375 l -0.877809,-0.15959 -0.877798,-0.16006 -1.061764,-0.48746 -1.061766,-0.48727 -0.181773,-0.47376 -0.181791,-0.47394 v -0.58351 -0.58418 l 0.855294,-0.85525 0.855297,-0.85475 h 1.281796 1.281809 l 0.935222,0.96474 0.935061,0.96486 v 0.35178 0.35142 h -0.841919 -0.841921 l -0.364248,-0.43844 -0.364296,-0.43891 h -0.824661 -0.824703 l -0.188753,0.30497 -0.188756,0.30579 0.353605,0.4262 0.353613,0.42596 h 0.603299 0.603285 l 1.262798,0.61124 1.262657,0.611 v 1.23582 1.23511 l -0.865821,0.64062 -0.865969,0.63991 h -1.417703 -1.417633 z m 9.35086,0.73528 -0.20648,-0.33413 0.10622,-2.82751 0.10554,-2.82728 -0.73191,-0.0322 -0.73108,-0.0305 -0.3345,-0.042 -0.334689,-0.042 -0.182646,-0.47598 -0.182604,-0.47585 0.333729,-0.40235 0.33314,-0.40127 h 2.87334 2.8725 l 0.19096,0.30903 0.19168,0.30897 -0.18234,0.72672 -0.18232,0.72662 -1.0737,-0.0844 -1.07299,-0.0844 -0.0152,3.07206 -0.0152,3.0721 -0.77703,0.0896 -0.77699,0.0896 z m 7.28681,-0.34654 -0.8445,-0.64863 -0.21454,-0.30241 -0.21501,-0.30263 -0.004,-3.16389 -0.004,-3.16384 0.92766,0.0913 0.92854,0.0913 0.0223,2.91735 0.0223,2.91729 0.83547,0.29521 0.83557,0.29536 0.55424,-0.6849 0.55439,-0.68478 v -2.60124 -2.60048 h 0.87834 0.8775 v 2.79871 2.79876 l -0.32851,0.63916 -0.32853,0.63897 -0.74109,0.65827 -0.74116,0.65835 h -1.08548 -1.08551 z m 7.46684,0.52201 -0.12587,-0.12592 0.0248,-3.89683 0.0248,-3.89732 1.34996,-0.0882 1.34993,-0.0881 1.16445,0.59394 1.16395,0.59356 0.6097,0.85657 0.60981,0.85616 -9.3e-4,1.12544 -9.3e-4,1.12527 -0.57275,0.93903 -0.57286,0.93908 -1.17011,0.59661 -1.17002,0.59726 h -1.2798 -1.27953 z m 3.89812,-2.59847 0.50599,-0.64016 0.007,-0.76191 0.007,-0.76193 -0.73629,-0.7938 -0.73572,-0.79428 -0.64623,0.0925 -0.64589,0.0925 -0.0164,2.04812 -0.0164,2.04816 0.11395,0.24288 0.1144,0.24338 0.77234,-0.18801 0.77268,-0.1876 z m 4.45753,2.36225 -0.15397,-0.40189 0.0814,-3.64087 0.0825,-3.64109 h 0.87777 0.8776 v 3.94955 3.94991 l -0.80627,0.0924 -0.80631,0.0924 z m 6.45035,-0.15751 -0.87675,-0.50425 -0.43991,-0.58546 -0.44053,-0.58486 -0.34101,-0.9786 -0.34107,-0.97917 0.34107,-0.93206 0.34101,-0.9324 0.43845,-0.60589 0.43905,-0.60503 0.93668,-0.48247 0.93645,-0.48234 h 0.72928 0.72916 l 1.01668,0.59985 1.0167,0.59958 0.46345,0.70634 0.46286,0.70643 -0.0109,1.54651 -0.0109,1.54663 -0.64811,0.74728 -0.64778,0.74728 -0.79427,0.49579 -0.79411,0.49638 -0.81521,-0.008 -0.81464,-0.008 z m 3.19055,-2.08516 0.50373,-0.55606 -0.0922,-1.09676 -0.0922,-1.09734 -0.77894,-0.57876 -0.77942,-0.57913 -0.76605,0.19174 -0.7657,0.19267 -0.5752,0.9431 -0.57533,0.94265 v 0.14626 0.14679 l 0.57982,0.9508 0.57984,0.95093 h 1.12928 1.1298 z m 5.00747,1.56814 -1.13198,-1.03633 0.47835,-0.47799 0.47893,-0.47844 0.66864,0.35341 0.66932,0.35355 0.80204,0.50267 0.80218,0.50293 0.51487,-0.32406 0.51428,-0.32443 v -0.5533 -0.55375 l -0.87752,-0.15959 -0.87822,-0.16006 -1.06121,-0.48746 -1.06213,-0.48727 -0.18182,-0.47376 -0.18178,-0.47394 v -0.53885 -0.5389 l 0.75737,-0.89979 0.75748,-0.90015 h 1.37959 1.38015 l 0.93465,0.96474 0.93572,0.96486 v 0.35178 0.35142 h -0.84242 -0.84203 l -0.36426,-0.43844 -0.36425,-0.43891 h -0.8246 -0.82438 l -0.18876,0.30497 -0.18865,0.30579 0.35321,0.4262 0.35404,0.42596 h 0.60318 0.60287 l 1.26285,0.61124 1.2632,0.611 v 1.26658 1.26668 l -0.98586,0.60903 -0.98553,0.60917 h -1.2977 -1.29857 z M 73.577702,68.048932 h 7.741191 L 96.801197,99.95625 112.28349,68.048932 h 7.74157 v 32.843558 h -7.74157 V 85.742435 L 100.11871,109.9768 H 93.483594 L 81.318893,85.742435 v 25.987485 h -7.741191 z" /><circle
       style="fill:#ffffff;stroke-width:0.154223"
       id="path4"
       cx="23.370501"
       cy="58.870499"
       r="3.8705001" /><circle
       style="fill:#ffffff;stroke-width:0.154223"
       id="path4-1"
       cx="23.370501"
       cy="121.1295"
       r="3.8705001" /><circle
       style="fill:#ffffff;stroke-width:0.154223"
       id="circle4"
       cx="156.6295"
       cy="121.1295"
       r="3.8705001" /><circle
       style="fill:#ffffff;stroke-width:0.154223"
       id="circle5"
       cx="156.6295"
       cy="58.870499"
       r="3.8705001" /><path
       style="fill:#ffffff;stroke-width:1.10587"
       d="M 32.770597,95.2527 H 57.763572 V 68.270112 h 7.741162 v 43.459808 h -7.741162 v -8.73635 H 40.511778 v 8.73635 h -7.741181 z m 95.659233,16.47722 v -6.63528 h 5.52897 V 68.048932 h 7.74123 v 37.045708 h 5.5293 v 6.63529 z M 32.770597,68.270112 h 7.741181 v 18.799372 h -7.741181 z"
       id="path1"
       sodipodi:nodetypes="ccccccccccccccccccccccccc" /></g></svg>
