<svg version="1.1" xmlns="http://www.w3.org/2000/svg" xmlns:xlink="http://www.w3.org/1999/xlink" width="525" height="409"><defs><linearGradient x1="-1.60155" y1="-3" x2="-1.60155" y2="360" gradientUnits="userSpaceOnUse" id="color-1"><stop offset="0" stop-color="#99ffff"/><stop offset="1" stop-color="#eee9bf"/></linearGradient><linearGradient x1="334.5" y1="146.75" x2="350.5" y2="146.75" gradientUnits="userSpaceOnUse" id="color-2"><stop offset="0" stop-color="#736534"/><stop offset="1" stop-color="#a89146"/></linearGradient><linearGradient x1="393.70888" y1="47.39136" x2="393.70888" y2="63.48258" gradientUnits="userSpaceOnUse" id="color-3"><stop offset="0" stop-color="#ffffff"/><stop offset="1" stop-color="#ffffff" stop-opacity="0"/></linearGradient><linearGradient x1="220.70888" y1="83.39137" x2="220.70888" y2="99.48258" gradientUnits="userSpaceOnUse" id="color-4"><stop offset="0" stop-color="#ffffff"/><stop offset="1" stop-color="#ffffff" stop-opacity="0"/></linearGradient><linearGradient x1="56.99855" y1="115.8404" x2="56.99855" y2="200.1536" gradientUnits="userSpaceOnUse" id="color-5"><stop offset="0" stop-color="#487946" stop-opacity="0"/><stop offset="1" stop-color="#487946"/></linearGradient><linearGradient x1="95.6825" y1="117.1904" x2="95.6825" y2="201.5036" gradientUnits="userSpaceOnUse" id="color-6"><stop offset="0" stop-color="#487946" stop-opacity="0"/><stop offset="1" stop-color="#487946"/></linearGradient><linearGradient x1="121.9064" y1="116.5011" x2="121.9064" y2="200.8782" gradientUnits="userSpaceOnUse" id="color-7"><stop offset="0" stop-color="#487946" stop-opacity="0"/><stop offset="1" stop-color="#487946"/></linearGradient><linearGradient x1="150.22075" y1="117.3011" x2="150.22075" y2="201.6782" gradientUnits="userSpaceOnUse" id="color-8"><stop offset="0" stop-color="#487946" stop-opacity="0"/><stop offset="1" stop-color="#487946"/></linearGradient><linearGradient x1="186.5005" y1="115.6511" x2="186.5005" y2="200.0282" gradientUnits="userSpaceOnUse" id="color-9"><stop offset="0" stop-color="#487946" stop-opacity="0"/><stop offset="1" stop-color="#487946"/></linearGradient><linearGradient x1="226.8318" y1="116.5011" x2="226.8318" y2="200.8782" gradientUnits="userSpaceOnUse" id="color-10"><stop offset="0" stop-color="#487946" stop-opacity="0"/><stop offset="1" stop-color="#487946"/></linearGradient><linearGradient x1="265.3325" y1="118.3404" x2="265.3325" y2="202.6536" gradientUnits="userSpaceOnUse" id="color-11"><stop offset="0" stop-color="#487946" stop-opacity="0"/><stop offset="1" stop-color="#487946"/></linearGradient></defs><g transform="translate(21,3)"><g data-paper-data="{&quot;isPaintingLayer&quot;:true}" fill="none" fill-rule="nonzero" stroke="none" stroke-width="none" stroke-linecap="none" stroke-linejoin="miter" stroke-miterlimit="10" stroke-dasharray="" stroke-dashoffset="0" font-family="none" font-weight="none" font-size="none" text-anchor="none" style="mix-blend-mode: normal"><path d="M-1.60155,-3h484v363h-484z" data-paper-data="{&quot;origPos&quot;:null}" id="ID0.2018686467781663" fill="url(#color-1)" stroke="none" stroke-width="1" stroke-linecap="round"/><path d="M198,318c0,-25.4051 20.5949,-46 46,-46c25.4051,0 46,20.5949 46,46c0,25.4051 -20.5949,46 -46,46c-25.4051,0 -46,-20.5949 -46,-46z" data-paper-data="{&quot;origPos&quot;:null}" fill="#fff8a1" stroke="none" stroke-width="0" stroke-linecap="butt"/><path d="M-9,373v-81h513v81z" data-paper-data="{&quot;origPos&quot;:null}" fill="#89caff" stroke="#000000" stroke-width="0" stroke-linecap="butt"/><path d="M337.33333,167.83333l-3,-40.66667l6.66667,-0.33333l3.33333,40.66667z" data-paper-data="{&quot;origPos&quot;:null}" fill="#a08c48" stroke="none" stroke-width="0" stroke-linecap="butt"/><path d="M337,167.5l-2.5,-40.5l13,-1l3,41z" data-paper-data="{&quot;origPos&quot;:null}" fill="url(#color-2)" stroke="#000000" stroke-width="0" stroke-linecap="butt"/><path d="M495,346.92661c0,32.62533 -102.52679,59.07339 -229,59.07339c-126.47321,0 -287,-18.90678 -287,-51.53211c0,-16.12401 113.75872,-25.63511 126.39346,-28.42756c68.10665,-15.05251 114.60795,-7.02758 183.13393,-18.69242c77.52053,-13.19593 191.47261,-38.34791 191.47261,-38.34791c0,0 15,45.30127 15,77.92661z" data-paper-data="{&quot;origPos&quot;:null}" fill="#d1b382" stroke="none" stroke-width="0" stroke-linecap="butt"/><path d="M294.00001,320.99999c-10.7275,8.69237 -82.31553,13.01813 -126.99865,10.9706c-15.60064,-0.71488 -39.00135,8.0294 -39.00135,8.0294c-9.3101,0 -77.54696,6.12002 -86.84845,6.52043c-27.90446,1.20123 -49.15155,43.39702 -49.15155,-1.52043c0,-15.02883 -6.28295,-19.32355 8.02382,-23.92595c42.92031,-13.80721 100.68467,-11.03879 152.86019,-15.4469c25.73876,-2.17457 106.46782,2.43621 132.11599,-0.62715c77.93612,-9.30852 192.84745,-38.43776 195.89328,-34.73475c1.01528,1.23434 -1.51473,0.0237 -0.90374,1.50054c3.82373,26.16321 -148.98955,19.25356 -185.98955,49.23422z" data-paper-data="{&quot;origPos&quot;:null}" fill="#e1c18b" stroke="none" stroke-width="0" stroke-linecap="butt"/><path d="M315,360.75l28.5,-52.5c0,0 0.41632,-3.82218 1.96288,-4.02838c4.43982,-0.59198 5.81728,2.9481 10.14795,1.80457c3.99277,-1.05431 9.41817,-5.60964 9.41817,-5.60964l0.971,4.83346c0,0 -23.93956,51.26009 -26.41205,53.24897c-7.41748,5.96663 -24.58795,2.25103 -24.58795,2.25103z" data-paper-data="{&quot;origPos&quot;:null}" fill="#c5a97a" stroke="none" stroke-width="0" stroke-linecap="butt"/><g stroke="none" stroke-width="0" stroke-linecap="butt"><path d="M354.59777,307.77256l-11.19553,-137.54512l10.96374,-0.8924l11.19553,137.54512z" data-paper-data="{&quot;origPos&quot;:null}" fill="#b1b1b1"/><path d="M344.13403,308.66496l-11.19553,-137.54512l10.96374,-0.8924l11.19553,137.54512z" data-paper-data="{&quot;origPos&quot;:null}" fill="#a3a3a3"/></g><path d="M344,176.5l10,125" data-paper-data="{&quot;origPos&quot;:null}" fill="none" stroke="#a7a7a7" stroke-width="3" stroke-linecap="round"/><path d="M323.31547,176.41931l-0.74487,-9.12468l42.11392,-3.43787l0.74487,9.12468z" data-paper-data="{&quot;origPos&quot;:null,&quot;origRot&quot;:0}" fill="#a7a7a7" stroke="none" stroke-width="0" stroke-linecap="butt"/><path d="M351.97353,124.23741c0.19144,2.75478 -4.56639,2.99606 -10.6269,3.41723c-6.06052,0.42117 -11.12873,0.86273 -11.32017,-1.89205c-0.19144,-2.75478 4.56639,-5.32939 10.6269,-5.75056c6.06052,-0.42117 11.12873,1.4706 11.32017,4.22538z" data-paper-data="{&quot;origRot&quot;:0,&quot;origPos&quot;:null}" fill="#a3a3a3" stroke="none" stroke-width="0" stroke-linecap="butt"/><g stroke="none" stroke-width="0" stroke-linecap="butt"><path d="M433,55.87271c0,7.68667 -10.59493,5.96423 -18.20308,7.06006c-8.43807,1.21536 -21.43422,0.03658 -21.43422,0.03658c0,0 -11.24796,0.31544 -19.55168,0.08351c-7.75575,-0.21663 -19.39327,0.57864 -19.39327,-7.18014c0,-5.99364 7.34509,-6.60546 13.23185,-7.73236c5.57029,-1.06632 9.13822,1.21025 14.80772,1.35845c4.52657,0.11832 6.72344,-2.10743 11.25156,-2.10743c0,0 7.17916,2.11189 10.22002,2.24404c0,0 9.21547,-0.93237 16.9636,0.47757c4.0457,0.7362 12.10751,1.07561 12.10751,5.75973z" data-paper-data="{&quot;origPos&quot;:null}" fill="url(#color-3)"/><path d="M260,91.87271c0,7.68667 -10.59492,5.96423 -18.20308,7.06006c-8.43807,1.21536 -21.43422,0.03657 -21.43422,0.03657c0,0 -11.24797,0.31544 -19.55169,0.08351c-7.75576,-0.21662 -19.39326,0.57863 -19.39326,-7.18015c0,-5.99364 7.3451,-9.60546 13.23185,-10.73236c5.57029,-1.06632 8.13822,0.21025 13.80772,0.35845c4.52657,0.11832 7.72343,4.89257 12.25156,4.89257c0,0 7.17916,-3.8881 10.22002,-3.75596c0,0 9.21547,2.06763 16.9636,3.47757c4.0457,0.7362 12.1075,1.07561 12.1075,5.75973z" data-paper-data="{&quot;origPos&quot;:null}" fill="url(#color-4)"/></g><g data-paper-data="{&quot;origPos&quot;:null}" stroke="none" stroke-width="2.45725" stroke-linecap="butt"><path d="M64.2167,115.8404c2.6514,0 4.8678,0.9117 6.7575,2.8406c1.8871,1.929 2.8405,4.256 2.8405,6.9098v65.041c0,2.5727 -0.9534,4.7916 -2.8405,6.6812c-1.8897,1.8872 -4.1061,2.8406 -6.7575,2.8406h-24.0343v-50.6046h8.4455v42.159h15.5888c0.8035,0 1.15,-0.3538 1.1525,-1.0762v-65.041c-0.0025,-0.8035 -0.349,-1.2286 -1.1525,-1.2286h-15.5888v25.1868l-8.4455,-25.3392v-8.3694z" data-paper-data="{&quot;origPos&quot;:null}" id="path3054" fill="url(#color-5)"/><path d="M103.0936,117.1904c2.5703,0 4.7916,0.8748 6.6788,2.7645c1.8896,1.8871 2.8406,4.1797 2.843,6.8336v22.8819c-0.0024,2.6514 -0.9534,4.9464 -2.843,6.836c-1.8872,1.8872 -4.1085,2.8406 -6.6788,2.8406h-2.9954l12.5172,42.1566h-9.0623l-14.5887,-50.6046h14.1292c0.7224,0 1.0738,-0.4251 1.0738,-1.2286v-22.8819c0,-0.806 -0.3514,-1.2287 -1.0738,-1.2287h-15.896v25.3392l-8.448,-25.3392v-8.3694zM87.1976,201.5036h-8.448v-50.6046h8.448z" data-paper-data="{&quot;origPos&quot;:null}" id="path3082" fill="url(#color-6)"/><path d="M126.1255,200.8782h-8.4382v-84.3771h8.4382z" data-paper-data="{&quot;origPos&quot;:null}" id="path3064" fill="url(#color-7)"/><path d="M143.4707,125.7393v25.3122h17.5964v8.4382h-17.5964v42.1885h-8.4382v-50.6267h8.4382l-8.4382,-25.3122v-8.4382h30.3765v8.4382z" data-paper-data="{&quot;origPos&quot;:null}" id="path3058" fill="url(#color-8)"/><path d="M202.5316,124.0893h-11.812v75.9389h-8.4382v-75.9389h-11.812v-8.4382h32.0622z" data-paper-data="{&quot;origPos&quot;:null}" id="path3086" fill="url(#color-9)"/><path d="M220.0817,124.9393v25.3122h17.5964v8.4382h-17.5964v33.7503h21.9384v8.4382h-30.3766v-50.6267h8.4382l-8.4382,-25.3122v-8.4382h30.3766v8.4382z" data-paper-data="{&quot;origPos&quot;:null}" id="path3056" fill="url(#color-10)"/><path d="M272.7436,118.3404c2.5703,0 4.7916,0.8748 6.6788,2.7645c1.8896,1.8871 2.8406,4.1797 2.843,6.8336v22.8819c-0.0024,2.6514 -0.9534,4.9464 -2.843,6.836c-1.8872,1.8872 -4.1085,2.8406 -6.6788,2.8406h-2.9954l12.5172,42.1566h-9.0623l-14.5887,-50.6046h14.1292c0.7224,0 1.0738,-0.4251 1.0738,-1.2286v-22.8819c0,-0.806 -0.3514,-1.2287 -1.0738,-1.2287h-15.896v25.3392l-8.448,-25.3392v-8.3694zM256.8476,202.6536h-8.448v-50.6046h8.448z" data-paper-data="{&quot;origPos&quot;:null}" id="path3082" fill="url(#color-11)"/></g></g></g></svg>